<?xml version="1.0" encoding="UTF-8"?>
<svg id="Camada_1" data-name="Camada 1" xmlns="http://www.w3.org/2000/svg" viewBox="0 0 489.65 189.48">
  <defs>
    <style>
      .cls-1 {
        fill: #009fe3;
      }
    </style>
  </defs>
  <path class="cls-1" d="m11.33,97.65c-1.02-.08-1.35,2.25-1.45,2.75-.62,3.07-1.22,6.14-1.81,9.21-.49,2.52-1,5.95-1.62,8.91-.11.53-.28.89-.5,1.07-.42.35-.82.32-1.18-.09-1.99-2.19-2.6-5.34-2.92-8.17-.65-5.79-.41-11.55.27-17.33.93-7.86,2.43-15.6,4.51-23.21,2.5-9.15,5.56-17.9,9.84-26.08,1.39-2.66,2.31-4.55,2.76-5.66,2.14-5.33,1.44-10.77.91-16.16-.73-7.35,1.54-14.89,9.3-17.09,3.28-.93,6.28-1.22,9.61-1.48,5.6-.43,10.72-1.74,15.36-3.35,3.4-1.18,5.96-1.31,9.4-.32.08.02.08.05,0,.08-7.22,2.96-26.27,13.62-23.26,23.81.98,3.31,3.92,6.52,6.01,9.32,3.74,4.99,6.72,10.41,8.94,16.24,3.08,8.05,5.83,16.21,8.27,24.48,3.07,10.43,5.34,20.73,5.74,31.44.13,3.59.09,10.95-2.78,13.59-.35.32-.68.31-1-.04-.36-.39-.64-1.08-.76-1.67-1.41-6.52-2.85-13.12-4.74-19.52-.36-1.22-1.2-.89-1.34.22-.08.71-.13,1.3-.15,1.79-.19,6.93-.4,12.62-.63,17.08-.47,9.29-1.79,18.53-2.97,27.8-.01.09-.1.15-.2.13-.02,0-.05-.01-.07-.03l-1.42-.86c-.52-.31-.83-.14-.95.5-.86,4.87,1.62,5.99,4.68,8.7.64.57,1.78,2.75-.1,2.42-1.53-.27-2.81-.43-3.84-.49-1.78-.09-2.98.84-4.42,1.68-.07.04-.15.04-.21,0-1.02-.51-2.04-1.02-3.06-1.51-1.46-.71-3.52.06-5.17.21-.19.02-.36-.1-.42-.28-.36-1.24,2.26-2.96,3.27-3.69,2.49-1.8,2.16-4.85,2.12-7.7-.01-.83-.77-.69-1.31-.47-2.11.88-4.48,2.29-6.86,2.02-.46-.05-.92-.06-1.37-.02-2.5.21-4.97-1.06-7.25-2.09-.84-.38-.86.17-.96.76-.29,1.76-.21,3.4.23,4.92.74,2.56,3.46,3.19,4.84,5.19,1.54,2.24-2.68,1.01-3.51.85-1.42-.27-3.55,1.14-4.74,1.81-.12.07-.27.06-.39-.01-1.37-.88-2.45-1.63-4.27-1.6-.88.01-2.24.16-4.09.44-.69.11-1-.44-.86-1.06.12-.53.41-.98.85-1.34,1.83-1.5,3.56-2.7,4.39-4.35.68-1.36.51-3.42.31-4.89-.02-.18-.19-.3-.37-.28-.03,0-.06.01-.08.02-.75.32-1.42.7-2.02,1.14-.05.03-.11.02-.15-.02,0-.01-.02-.03-.02-.04-.69-4.01-1.37-7.91-2.04-11.7-2.01-11.31-2.86-22.65-3.82-34.08-.05-.61-.18-1.21-.38-1.78-.03-.07-.09-.13-.16-.13Z"/>
  <g>
    <path class="cls-1" d="m92.07,78.69-.1-8.89c0-7.96,1.29-13.97,3.86-18.06,3.55-6.13,8.87-10.53,15.96-13.22,7.1-2.69,14.88-2.74,23.38-.16l-4.83,18.87c-2.15-.43-4.11-.68-5.88-.73-1.78-.05-3.25.11-4.43.49-1.19.37-2.23.81-3.14,1.29-.92.49-1.64,1.24-2.18,2.26-.54,1.02-.97,1.94-1.29,2.74s-.51,1.91-.56,3.31-.1,2.47-.16,3.23c-.06.75-.06,1.91,0,3.46.05,1.56.08,2.6.08,3.14h18.22l.16,17.25h-18.54v62.54l-20.31.16v-62.71"/>
    <path class="cls-1" d="m159.67,39.02v117.68h-20.79V39.02h20.79Z"/>
    <path class="cls-1" d="m185.46,58.84c-2.47,2.37-5.48,3.55-9.03,3.55s-6.56-1.18-9.03-3.55c-2.47-2.36-3.71-5.32-3.71-8.86s1.23-6.5,3.71-8.87c2.47-2.36,5.48-3.55,9.03-3.55s6.55,1.19,9.03,3.55c2.47,2.37,3.71,5.32,3.71,8.87s-1.23,6.5-3.71,8.86Zm1.45,17.25v80.6h-20.64v-80.6h20.64Z"/>
    <path class="cls-1" d="m192.87,187.48l-.32-111.07,18.54.16.81,8.38c5.16-7.42,13.22-11.12,24.18-11.12,4.51,0,9,1.02,13.46,3.06,4.45,2.04,8.57,4.95,12.33,8.7,3.76,3.77,6.69,8.68,8.78,14.75,2.1,6.07,2.87,12.71,2.34,19.91-.43,6.13-1.77,11.6-4.03,16.44-2.26,4.83-5.05,8.7-8.38,11.6-3.33,2.9-6.77,5.16-10.32,6.77-3.54,1.61-7.25,2.64-11.12,3.06-10.86,1.29-19.83-1.67-26.93-8.86l.16,38.04-19.51.16Zm18.7-71.09c0,6.99,1.86,12.71,5.56,17.17,3.71,4.46,8.89,6.75,15.55,6.85,5.81.22,10.78-2.01,14.92-6.69,4.13-4.68,6.21-10.5,6.21-17.49s-2.1-12.35-6.29-17.09c-4.19-4.72-9.4-6.98-15.63-6.77-4.95.22-9.03,1.69-12.25,4.43-3.23,2.74-5.38,5.75-6.45,9.03-1.08,3.28-1.61,6.8-1.61,10.56Z"/>
    <path class="cls-1" d="m273.63,187.48l-.32-111.07,18.54.16.81,8.38c5.16-7.42,13.22-11.12,24.18-11.12,4.51,0,9,1.02,13.46,3.06,4.45,2.04,8.57,4.95,12.33,8.7,3.76,3.77,6.69,8.68,8.78,14.75,2.1,6.07,2.87,12.71,2.34,19.91-.43,6.13-1.77,11.6-4.03,16.44-2.26,4.83-5.05,8.7-8.38,11.6s-6.77,5.16-10.32,6.77c-3.54,1.61-7.25,2.64-11.12,3.06-10.86,1.29-19.83-1.67-26.93-8.86l.16,38.04-19.51.16Zm18.7-71.09c0,6.99,1.86,12.71,5.56,17.17,3.71,4.46,8.89,6.75,15.55,6.85,5.81.22,10.78-2.01,14.92-6.69,4.13-4.68,6.21-10.5,6.21-17.49s-2.1-12.35-6.29-17.09c-4.19-4.72-9.4-6.98-15.63-6.77-4.95.22-9.03,1.69-12.25,4.43-3.23,2.74-5.38,5.75-6.45,9.03-1.08,3.28-1.61,6.8-1.61,10.56Z"/>
    <path class="cls-1" d="m366.17,85.12c8.06-7.2,17.89-10.8,29.5-10.8,5.48,0,10.64.91,15.47,2.74,4.83,1.83,9.19,4.55,13.06,8.15,3.86,3.6,6.77,8.49,8.7,14.67s2.63,13.3,2.09,21.36l-60.77.65c0,4.08,1.74,8.25,5.24,12.49,3.49,4.25,8.46,6.53,14.91,6.85,9.68.54,16.6-3.23,20.79-11.29l18.38,5.48c-2.37,5.81-6.83,11.02-13.38,15.64-6.55,4.62-14.61,6.93-24.18,6.93-12.57,0-22.71-4.01-30.39-12.01-7.68-8.01-11.53-17.92-11.53-29.75,0-13.54,4.03-23.91,12.09-31.11Zm48.2,21.44c0-4.19-2.04-8.04-6.12-11.53-4.09-3.5-9.35-4.97-15.8-4.43-4.41.32-8.36,1.99-11.85,5-3.5,3.01-5.46,6.72-5.88,11.12l39.65-.16Z"/>
    <path class="cls-1" d="m435.33,156.05v-78.83h19.34v11.77c2.47-6.13,7.25-10.48,14.35-13.06,2.79-1.07,6.26-1.48,10.4-1.21,4.13.27,7.54,1.21,10.23,2.82l-5.32,17.57c-3.01-1.72-6.99-2.23-11.93-1.53-4.95.7-8.87,2.66-11.77,5.88-2.68,3-4.35,6.47-4.99,10.4-.65,3.92-.97,11.31-.97,22.16v24.18l-19.34-.16Z"/>
  </g>
  <text/>
</svg>