<svg width="230" height="230" viewBox="0 0 230 230" fill="none" xmlns="http://www.w3.org/2000/svg">
<path d="M128.334 66.8148L101.243 66.8398L90.5246 39.6423L128.334 66.8148Z" fill="#F78419" stroke="#F78419"/>
<path d="M90.5246 39.6423L139.325 39.5755L128.334 66.8148L90.5246 39.6423Z" fill="#F78419" stroke="#F78419"/>
<path d="M60.8513 87.7717L29.9511 80.2396L28.1954 72.9669L60.8513 87.7717Z" fill="#773900" stroke="#773900"/>
<path d="M35.5919 101.488L60.8513 87.7717L74.1134 90.581L35.5919 101.488Z" fill="#773900" stroke="#773900"/>
<path d="M31.1234 88.973L60.8512 87.7717L35.5918 101.488L31.1234 88.973Z" fill="#773900" stroke="#773900"/>
<path d="M31.1234 88.973L29.9511 80.2396L60.8512 87.7717L31.1234 88.973Z" fill="#773900" stroke="#773900"/>
<path d="M101.243 66.8398L32.3712 15.1702L90.5246 39.6423L101.243 66.8398Z" fill="#E47719" stroke="#E47719"/>
<path d="M169.033 87.7093L201.722 72.8243L199.955 80.1204L169.033 87.7093Z" fill="#773900" stroke="#773900"/>
<path d="M197.282 14.8775L128.334 66.8148L139.325 39.5755L197.282 14.8775Z" fill="#E17719" stroke="#E17719"/>
<path d="M194.283 101.433L155.64 90.5377L169.033 87.7093L194.283 101.433Z" fill="#773900" stroke="#773900"/>
<path d="M198.771 88.8796L194.283 101.433L169.033 87.7093L198.771 88.8796Z" fill="#773900" stroke="#773900"/>
<path d="M198.771 88.8796L169.033 87.7093L199.955 80.1204L198.771 88.8796Z" fill="#773900" stroke="#773900"/>
<path d="M61.8673 49.1026L60.8513 87.7717L28.1954 72.9669L61.8673 49.1026Z" fill="#773900" stroke="#773900"/>
<path d="M74.1134 90.581L60.8513 87.7717L61.8673 49.1026L74.1134 90.581Z" fill="#773900" stroke="#773900"/>
<path d="M201.722 72.8243L169.033 87.7093L167.82 48.9739L201.722 72.8243Z" fill="#773900" stroke="#773900"/>
<path d="M167.82 48.9739L169.033 87.7093L155.64 90.5377L167.82 48.9739Z" fill="#773900" stroke="#773900"/>
<path d="M75.4197 170.379L32.9178 184.613L21.8673 142.352L75.4197 170.379Z" fill="#E47719" stroke="#E47719"/>
<path d="M208.174 142.412L197.113 184.78L154.151 170.441L208.174 142.412Z" fill="#E47719" stroke="#E47719"/>
<path d="M62.2014 105.598L21.8673 142.352L35.5919 101.488L62.2014 105.598Z" fill="#F78419" stroke="#F78419"/>
<path d="M61.8673 49.1026L101.243 66.8398L74.1134 90.581L61.8673 49.1026Z" fill="#773900" stroke="#773900"/>
<path d="M24.2125 75.6924L28.1953 72.9669L29.9511 80.2396L24.2125 75.6924Z" fill="#773900" stroke="#773900"/>
<path d="M155.64 90.5377L128.334 66.8148L167.82 48.9739L155.64 90.5377Z" fill="#773900" stroke="#773900"/>
<path d="M21.8673 142.352L56.093 139.212L75.4197 170.379L21.8673 142.352Z" fill="#E47719" stroke="#E47719"/>
<path d="M56.093 139.212L21.8673 142.352L62.2014 105.598L56.093 139.212Z" fill="#F78419" stroke="#F78419"/>
<path d="M31.1234 88.973L25.4409 83.535L29.9511 80.2396L31.1234 88.973Z" fill="#773900" stroke="#773900"/>
<path d="M167.285 105.569L194.283 101.433L208.174 142.412L167.285 105.569Z" fill="#F78419" stroke="#F78419"/>
<path d="M205.708 75.5515L199.955 80.1204L201.722 72.8243L205.708 75.5515Z" fill="#773900" stroke="#773900"/>
<path d="M35.5918 101.488L27.4345 91.48L31.1234 88.973L35.5918 101.488Z" fill="#773900" stroke="#773900"/>
<path d="M154.151 170.441L173.399 139.243L208.174 142.412L154.151 170.441Z" fill="#E47719" stroke="#E47719"/>
<path d="M167.285 105.569L208.174 142.412L173.399 139.243L167.285 105.569Z" fill="#F78419" stroke="#F78419"/>
<path d="M198.771 88.8796L199.955 80.1204L204.469 83.4191L198.771 88.8796Z" fill="#773900" stroke="#773900"/>
<path d="M28.1954 72.9669L22.7605 42.952L61.8673 49.1026L28.1954 72.9669Z" fill="#773900" stroke="#773900"/>
<path d="M194.283 101.433L198.771 88.8795L202.463 91.3896L194.283 101.433Z" fill="#773900" stroke="#773900"/>
<path d="M167.82 48.9739L207.083 42.7094L201.722 72.8243L167.82 48.9739Z" fill="#773900" stroke="#773900"/>
<path d="M35.5919 101.488L74.1134 90.581L62.2014 105.598L35.5919 101.488Z" fill="#F78419" stroke="#F78419"/>
<path d="M194.283 101.433L167.285 105.569L155.64 90.5377L194.283 101.433Z" fill="#F78419" stroke="#F78419"/>
<path d="M74.1134 90.581L101.243 66.8398L103.414 106.406L74.1134 90.581Z" fill="#E47719" stroke="#E47719"/>
<path d="M103.414 106.406L62.2014 105.598L74.1134 90.581L103.414 106.406Z" fill="#E47719" stroke="#E47719"/>
<path d="M155.64 90.5377L167.285 105.569L125.867 106.4L155.64 90.5377Z" fill="#E47719" stroke="#E47719"/>
<path d="M125.867 106.4L128.334 66.8148L155.64 90.5377L125.867 106.4Z" fill="#E47719" stroke="#E47719"/>
<path d="M32.3712 15.1702L101.243 66.8398L61.8673 49.1026L32.3712 15.1702Z" fill="#773900" stroke="#773900"/>
<path d="M61.8673 49.1026L22.7605 42.952L32.3712 15.1702L61.8673 49.1026Z" fill="#773900" stroke="#773900"/>
<path d="M197.282 14.8775L207.083 42.7094L167.82 48.9739L197.282 14.8775Z" fill="#773900" stroke="#773900"/>
<path d="M167.82 48.9739L128.334 66.8148L197.282 14.8775L167.82 48.9739Z" fill="#773900" stroke="#773900"/>
<path d="M101.243 66.8398L128.334 66.8148L125.867 106.4L101.243 66.8398Z" fill="#F78419" stroke="#F78419"/>
<path d="M125.867 106.4L103.414 106.406L101.243 66.8398L125.867 106.4Z" fill="#F78419" stroke="#F78419"/>
<path d="M75.4197 170.379L56.093 139.212L79.1147 138.639L75.4197 170.379Z" fill="#CD6200" stroke="#CD6200"/>
<path d="M154.151 170.441L150.199 138.657L173.399 139.243L154.151 170.441Z" fill="#CD6200" stroke="#CD6200"/>
<path d="M78.6789 121.922L62.2014 105.598L103.414 106.406L78.6789 121.922Z" fill="#CD6200" stroke="#CD6200"/>
<path d="M62.2014 105.598L78.6789 121.922L79.1147 138.639L62.2014 105.598Z" fill="#E47424" stroke="#E47424"/>
<path d="M62.2014 105.598L79.1147 138.639L56.093 139.212L62.2014 105.598Z" fill="#F78419" stroke="#F78419"/>
<path d="M125.867 106.4L167.285 105.569L150.675 121.921L125.867 106.4Z" fill="#CD6200" stroke="#CD6200"/>
<path d="M167.285 105.569L150.199 138.657L150.675 121.921L167.285 105.569Z" fill="#E47424" stroke="#E47424"/>
<path d="M173.399 139.243L150.199 138.657L167.285 105.569L173.399 139.243Z" fill="#F78419" stroke="#F78419"/>
<path d="M83.5051 175.817L75.4197 170.379L98.6116 175.623L83.5051 175.817Z" fill="#C0AC9D" stroke="#C0AC9D"/>
<path d="M130.17 175.65L154.151 170.441L145.877 175.871L130.17 175.65Z" fill="#C0AC9D" stroke="#C0AC9D"/>
<path d="M98.3709 167.266L98.6116 175.623L75.4197 170.379L98.3709 167.266Z" fill="#D6C2B2" stroke="#D6C2B2"/>
<path d="M75.4197 170.379L100.396 150.298L98.3709 167.266L75.4197 170.379Z" fill="#D6C2B2" stroke="#D6C2B2"/>
<path d="M100.396 150.298L75.4197 170.379L79.1147 138.639L100.396 150.298Z" fill="#E47719" stroke="#E47719"/>
<path d="M130.261 167.29L154.151 170.441L130.17 175.65L130.261 167.29Z" fill="#D6C2B2" stroke="#D6C2B2"/>
<path d="M154.151 170.441L130.261 167.29L128.212 150.311L154.151 170.441Z" fill="#D6C2B2" stroke="#D6C2B2"/>
<path d="M128.212 150.311L150.199 138.657L154.151 170.441L128.212 150.311Z" fill="#E47719" stroke="#E47719"/>
<path d="M103.414 106.406L93.4481 115.076L78.6789 121.922L103.414 106.406Z" fill="#CD6200" stroke="#CD6200"/>
<path d="M150.675 121.921L135.863 115.071L125.867 106.4L150.675 121.921Z" fill="#CD6200" stroke="#CD6200"/>
<path d="M99.4975 127.397L78.6789 121.922L93.4481 115.076L99.4975 127.397Z" fill="#243343" stroke="#243343"/>
<path d="M79.1147 138.639L78.6789 121.922L99.4975 127.397L79.1147 138.639Z" fill="#F78419" stroke="#F78419"/>
<path d="M129.733 127.399L135.863 115.071L150.675 121.921L129.733 127.399Z" fill="#243343" stroke="#243343"/>
<path d="M150.199 138.657L129.733 127.399L150.675 121.921L150.199 138.657Z" fill="#F78419" stroke="#F78419"/>
<path d="M93.4481 115.076L103.414 106.406L99.4975 127.397L93.4481 115.076Z" fill="#CD6200" stroke="#CD6200"/>
<path d="M135.863 115.071L129.733 127.399L125.867 106.4L135.863 115.071Z" fill="#CD6200" stroke="#CD6200"/>
<path d="M99.4975 127.397L103.414 106.406L104.261 118.901L99.4975 127.397Z" fill="#E47424" stroke="#E47424"/>
<path d="M104.261 118.901L103.414 106.406L125.867 106.4L104.261 118.901Z" fill="#F78419" stroke="#F78419"/>
<path d="M125.867 106.4L124.902 118.9L104.261 118.901L125.867 106.4Z" fill="#F78419" stroke="#F78419"/>
<path d="M129.733 127.399L124.902 118.9L125.867 106.4L129.733 127.399Z" fill="#E17719" stroke="#E17719"/>
<path d="M98.6116 175.623L99.978 182.657L83.5051 175.817L98.6116 175.623Z" fill="#C0AC9D" stroke="#C0AC9D"/>
<path d="M145.877 175.871L128.768 182.686L130.17 175.65L145.877 175.871Z" fill="#C0AC9D" stroke="#C0AC9D"/>
<path d="M100.396 150.298L79.1147 138.639L99.4975 127.397L100.396 150.298Z" fill="#F78419" stroke="#F78419"/>
<path d="M129.733 127.399L150.199 138.657L128.212 150.311L129.733 127.399Z" fill="#F78419" stroke="#F78419"/>
<path d="M104.261 118.901L103.982 147.801L99.4975 127.397L104.261 118.901Z" fill="#E47424" stroke="#E47424"/>
<path d="M99.4975 127.397L103.982 147.801L100.396 150.298L99.4975 127.397Z" fill="#F78419" stroke="#F78419"/>
<path d="M124.902 118.9L129.733 127.399L124.623 147.81L124.902 118.9Z" fill="#E47424" stroke="#E47424"/>
<path d="M128.212 150.311L124.623 147.81L129.733 127.399L128.212 150.311Z" fill="#F78419" stroke="#F78419"/>
<path d="M104.261 118.901L124.902 118.9L124.623 147.81L104.261 118.901Z" fill="#F78419" stroke="#F78419"/>
<path d="M124.623 147.81L103.982 147.801L104.261 118.901L124.623 147.81Z" fill="#F78419" stroke="#F78419"/>
<path d="M99.978 182.657L98.6115 175.623L98.3709 167.266L99.978 182.657Z" fill="#C0AC9D" stroke="#C0AC9D"/>
<path d="M130.261 167.29L130.17 175.65L128.768 182.686L130.261 167.29Z" fill="#C0AC9D" stroke="#C0AC9D"/>
<path d="M98.3709 167.266L100.184 164.961L99.978 182.657L98.3709 167.266Z" fill="#C0AC9D" stroke="#C0AC9D"/>
<path d="M99.978 182.657L100.184 164.961L128.374 164.98L99.978 182.657Z" fill="#C0AC9D" stroke="#C0AC9D"/>
<path d="M128.374 164.98L128.768 182.686L99.978 182.657L128.374 164.98Z" fill="#C0AC9D" stroke="#C0AC9D"/>
<path d="M128.768 182.686L128.374 164.98L130.261 167.29L128.768 182.686Z" fill="#C0AC9D" stroke="#C0AC9D"/>
<path d="M100.184 164.961L98.3709 167.266L100.396 150.298L100.184 164.961Z" fill="black" stroke="black"/>
<path d="M128.212 150.311L130.261 167.29L128.374 164.98L128.212 150.311Z" fill="black" stroke="black"/>
<path d="M103.716 150.054L103.982 147.801L124.623 147.81L103.716 150.054Z" fill="black" stroke="black"/>
<path d="M100.396 150.298L103.982 147.801L103.716 150.054L100.396 150.298Z" fill="black" stroke="black"/>
<path d="M100.396 150.298L101.421 152.643L100.184 164.961L100.396 150.298Z" fill="black" stroke="black"/>
<path d="M103.716 150.054L101.421 152.643L100.396 150.298L103.716 150.054Z" fill="black" stroke="black"/>
<path d="M124.623 147.81L124.747 150.063L103.716 150.054L124.623 147.81Z" fill="black" stroke="black"/>
<path d="M124.747 150.063L124.623 147.81L128.212 150.311L124.747 150.063Z" fill="black" stroke="black"/>
<path d="M128.374 164.98L127.043 152.656L128.212 150.311L128.374 164.98Z" fill="black" stroke="black"/>
<path d="M128.212 150.311L127.043 152.656L124.747 150.063L128.212 150.311Z" fill="black" stroke="black"/>
<path d="M128.374 164.98L100.184 164.961L101.421 152.643L128.374 164.98Z" fill="black" stroke="black"/>
<path d="M101.421 152.643L127.043 152.656L128.374 164.98L101.421 152.643Z" fill="black" stroke="black"/>
<path d="M101.421 152.643L103.716 150.054L124.747 150.063L101.421 152.643Z" fill="black" stroke="black"/>
<path d="M124.747 150.063L127.043 152.656L101.421 152.643L124.747 150.063Z" fill="black" stroke="black"/>
</svg>
