<?xml version="1.0" encoding="UTF-8"?>
<svg id="Camada_1" data-name="Camada 1" xmlns="http://www.w3.org/2000/svg" xmlns:xlink="http://www.w3.org/1999/xlink" viewBox="0 0 358.57 130.58">
  <defs>
    <style>
      .cls-1 {
        fill: #009fe3;
      }

      .cls-2 {
        clip-path: url(#clippath);
      }

      .cls-3 {
        fill: none;
      }
    </style>
    <clipPath id="clippath">
      <rect class="cls-3" x="155.82" y="-73.75" width="295.75" height="178.82"/>
    </clipPath>
  </defs>
  <g>
    <path class="cls-1" d="m-.19,36.46-.09-7.69c0-6.88,1.11-12.09,3.34-15.62C6.13,7.85,10.74,4.04,16.87,1.71c6.14-2.33,12.88-2.37,20.23-.14l-4.18,16.32c-1.86-.37-3.56-.58-5.09-.63-1.54-.05-2.81.1-3.84.42-1.03.32-1.93.7-2.72,1.11-.79.42-1.42,1.07-1.88,1.95-.47.89-.84,1.67-1.12,2.37s-.44,1.65-.49,2.86-.09,2.14-.14,2.79c-.05.65-.05,1.65,0,3,.05,1.35.07,2.25.07,2.72h15.76l.14,14.93h-16.04v54.11l-17.57.14v-54.26"/>
    <path class="cls-1" d="m58.3,2.13v101.81h-17.99V2.13h17.99Z"/>
    <path class="cls-1" d="m80.61,19.28c-2.14,2.05-4.74,3.07-7.81,3.07s-5.68-1.02-7.81-3.07c-2.14-2.04-3.21-4.6-3.21-7.67s1.07-5.62,3.21-7.67c2.14-2.04,4.74-3.07,7.81-3.07s5.67,1.03,7.81,3.07c2.14,2.05,3.21,4.6,3.21,7.67s-1.07,5.62-3.21,7.67Zm1.25,14.93v69.74h-17.85V34.21h17.85Z"/>
    <path class="cls-1" d="m87.02,130.58l-.28-96.1,16.04.14.7,7.25c4.47-6.42,11.44-9.63,20.92-9.63,3.9,0,7.79.89,11.65,2.65,3.85,1.76,7.41,4.28,10.67,7.53,3.25,3.26,5.79,7.51,7.6,12.76,1.82,5.26,2.49,10.99,2.02,17.22-.37,5.3-1.53,10.04-3.48,14.23-1.95,4.18-4.37,7.53-7.25,10.04-2.88,2.51-5.86,4.47-8.93,5.86-3.06,1.4-6.28,2.28-9.62,2.65-9.4,1.12-17.16-1.44-23.3-7.67l.14,32.91-16.88.14Zm16.18-61.51c0,6.04,1.61,11,4.81,14.85,3.21,3.86,7.69,5.84,13.46,5.93,5.02.19,9.32-1.74,12.91-5.79,3.58-4.05,5.37-9.09,5.37-15.14s-1.82-10.69-5.44-14.78c-3.63-4.09-8.13-6.04-13.52-5.86-4.28.19-7.81,1.46-10.6,3.84-2.79,2.37-4.65,4.98-5.58,7.81-.93,2.84-1.4,5.89-1.4,9.14Z"/>
    <path class="cls-1" d="m156.9,130.58l-.28-96.1,16.04.14.7,7.25c4.47-6.42,11.44-9.63,20.92-9.63,3.9,0,7.79.89,11.65,2.65,3.85,1.76,7.41,4.28,10.67,7.53,3.25,3.26,5.79,7.51,7.6,12.76,1.82,5.26,2.49,10.99,2.02,17.22-.37,5.3-1.53,10.04-3.48,14.23-1.95,4.18-4.37,7.53-7.25,10.04-2.88,2.51-5.86,4.47-8.93,5.86-3.06,1.4-6.28,2.28-9.62,2.65-9.4,1.12-17.16-1.44-23.3-7.67l.14,32.91-16.88.14Zm16.18-61.51c0,6.04,1.61,11,4.81,14.85,3.21,3.86,7.69,5.84,13.46,5.93,5.02.19,9.32-1.74,12.91-5.79,3.58-4.05,5.37-9.09,5.37-15.14s-1.82-10.69-5.44-14.78c-3.63-4.09-8.13-6.04-13.52-5.86-4.28.19-7.81,1.46-10.6,3.84-2.79,2.37-4.65,4.98-5.58,7.81-.93,2.84-1.4,5.89-1.4,9.14Z"/>
    <path class="cls-1" d="m236.96,42.02c6.97-6.23,15.48-9.34,25.53-9.34,4.74,0,9.21.79,13.39,2.37,4.18,1.58,7.95,3.93,11.3,7.05,3.34,3.12,5.86,7.34,7.53,12.69s2.28,11.51,1.81,18.48l-52.58.56c0,3.53,1.51,7.13,4.53,10.81,3.02,3.68,7.32,5.65,12.9,5.93,8.37.47,14.36-2.79,17.99-9.77l15.9,4.74c-2.05,5.02-5.91,9.53-11.58,13.53-5.67,4-12.64,6-20.92,6-10.88,0-19.65-3.47-26.29-10.39-6.65-6.93-9.97-15.5-9.97-25.74,0-11.71,3.48-20.69,10.46-26.92Zm41.7,18.55c0-3.63-1.76-6.95-5.29-9.97-3.54-3.02-8.09-4.3-13.67-3.84-3.81.28-7.23,1.72-10.25,4.32-3.02,2.6-4.72,5.81-5.09,9.62l34.31-.14Z"/>
  </g>
  <text/>
  <g class="cls-2">
    <path class="cls-1" d="m288.56,174.53c-1.33-.12-1.77,3.37-1.9,4.12-.81,4.6-1.6,9.21-2.38,13.82-.64,3.78-1.31,8.92-2.12,13.37-.15.8-.36,1.33-.66,1.61-.55.52-1.07.48-1.55-.13-2.6-3.28-3.4-8.02-3.82-12.26-.85-8.69-.53-17.33.36-26,1.21-11.79,3.18-23.4,5.91-34.83,3.27-13.73,7.28-26.87,12.89-39.14,1.82-4,3.03-6.83,3.61-8.49,2.8-8,1.89-16.16,1.19-24.24-.96-11.04,2.02-22.34,12.19-25.64,4.3-1.39,8.23-1.83,12.59-2.21,7.34-.64,14.04-2.61,20.12-5.02,4.45-1.77,7.81-1.97,12.31-.48.1.03.1.07,0,.12-9.46,4.45-34.42,20.44-30.48,35.73,1.28,4.97,5.13,9.78,7.88,13.99,4.89,7.49,8.8,15.62,11.72,24.37,4.03,12.08,7.64,24.32,10.83,36.73,4.03,15.65,7,31.11,7.52,47.17.18,5.39.12,16.42-3.64,20.39-.45.48-.89.46-1.31-.06-.47-.59-.84-1.62-1-2.5-1.85-9.78-3.73-19.69-6.21-29.29-.47-1.83-1.58-1.33-1.75.33-.11,1.06-.17,1.95-.19,2.69-.25,10.4-.53,18.94-.83,25.63-.62,13.95-2.34,27.8-3.88,41.71-.02.13-.13.22-.26.19-.03,0-.06-.02-.09-.04l-1.86-1.29c-.68-.47-1.09-.22-1.24.76-1.13,7.3,2.12,8.98,6.13,13.06.84.85,2.33,4.12-.13,3.62-2-.41-3.68-.65-5.04-.73-2.33-.14-3.91,1.26-5.79,2.52-.09.06-.19.06-.28.01-1.34-.77-2.67-1.53-4-2.27-1.91-1.07-4.61.09-6.78.32-.25.03-.47-.15-.54-.42-.48-1.87,2.96-4.43,4.29-5.53,3.27-2.69,2.83-7.28,2.77-11.56-.02-1.24-1.01-1.04-1.72-.7-2.77,1.32-5.87,3.43-8.98,3.02-.61-.08-1.21-.09-1.8-.03-3.28.32-6.51-1.59-9.5-3.13-1.1-.57-1.13.25-1.25,1.14-.38,2.64-.28,5.1.3,7.38.97,3.84,4.54,4.79,6.34,7.78,2.02,3.36-3.52,1.52-4.59,1.28-1.86-.41-4.65,1.72-6.21,2.71-.16.1-.36.09-.51-.02-1.79-1.32-3.21-2.45-5.6-2.41-1.15.02-2.93.24-5.35.66-.9.16-1.32-.66-1.13-1.59.16-.8.53-1.47,1.11-2.01,2.4-2.25,4.67-4.05,5.75-6.52.89-2.04.67-5.13.4-7.34-.03-.27-.25-.45-.48-.42-.04,0-.07.02-.11.03-.98.49-1.86,1.06-2.65,1.71-.06.05-.15.03-.19-.03-.01-.02-.02-.04-.02-.06-.9-6.02-1.79-11.88-2.68-17.56-2.63-16.97-3.74-33.99-5-51.14-.07-.92-.23-1.81-.5-2.67-.04-.11-.12-.19-.21-.19Z"/>
  </g>
</svg>