<?xml version="1.0" encoding="UTF-8"?>
<svg id="Camada_1" data-name="Camada 1" xmlns="http://www.w3.org/2000/svg" viewBox="0 0 104.24 241.01">
  <defs>
    <style>
      .cls-1 {
        fill: #009fe3;
      }
    </style>
  </defs>
  <path class="cls-1" d="m15.11,149.53c-1.56-.12-2.07,3.44-2.23,4.21-.95,4.7-1.87,9.4-2.78,14.11-.74,3.86-1.53,9.11-2.48,13.64-.17.81-.43,1.36-.77,1.64-.65.53-1.25.49-1.81-.13-3.04-3.35-3.98-8.18-4.47-12.51-1-8.87-.62-17.69.42-26.53,1.42-12.03,3.72-23.88,6.9-35.55,3.83-14.01,8.51-27.42,15.06-39.94,2.13-4.08,3.54-6.97,4.22-8.67,3.28-8.16,2.21-16.5,1.39-24.74-1.12-11.26,2.36-22.8,14.25-26.16,5.02-1.42,9.62-1.87,14.72-2.26,8.58-.65,16.41-2.66,23.52-5.12,5.21-1.8,9.13-2.01,14.39-.49.12.03.12.07,0,.12-11.06,4.54-40.23,20.86-35.62,36.46,1.5,5.07,6,9.98,9.21,14.27,5.72,7.65,10.29,15.94,13.7,24.87,4.71,12.33,8.93,24.82,12.66,37.48,4.71,15.97,8.18,31.75,8.79,48.14.21,5.5.14,16.76-4.26,20.81-.53.49-1.04.47-1.53-.06-.55-.6-.98-1.66-1.17-2.55-2.16-9.98-4.36-20.09-7.26-29.89-.55-1.86-1.84-1.36-2.05.34-.13,1.08-.2,1.99-.22,2.74-.3,10.61-.62,19.33-.97,26.16-.73,14.23-2.74,28.38-4.54,42.57-.02.14-.16.22-.31.2-.04,0-.07-.02-.1-.04l-2.17-1.32c-.79-.48-1.28-.22-1.45.77-1.32,7.45,2.48,9.17,7.17,13.33.98.87,2.73,4.21-.15,3.7-2.34-.41-4.3-.66-5.89-.74-2.72-.14-4.57,1.28-6.77,2.57-.1.06-.22.06-.33.01-1.57-.79-3.13-1.56-4.68-2.32-2.23-1.09-5.39.09-7.92.32-.29.03-.55-.15-.64-.43-.56-1.9,3.46-4.53,5.01-5.64,3.82-2.75,3.3-7.43,3.24-11.79-.02-1.26-1.19-1.06-2.01-.71-3.24,1.35-6.86,3.5-10.5,3.09-.71-.08-1.41-.09-2.1-.03-3.83.32-7.61-1.62-11.1-3.2-1.29-.58-1.32.25-1.46,1.17-.44,2.7-.33,5.21.35,7.53,1.14,3.92,5.3,4.89,7.41,7.94,2.36,3.43-4.11,1.55-5.37,1.31-2.18-.42-5.43,1.75-7.26,2.77-.19.1-.42.1-.59-.02-2.09-1.35-3.75-2.5-6.54-2.46-1.34.02-3.43.24-6.26.67-1.05.16-1.54-.68-1.32-1.62.19-.81.62-1.5,1.3-2.05,2.81-2.3,5.45-4.13,6.72-6.66,1.04-2.08.78-5.24.47-7.49-.04-.27-.29-.46-.56-.42-.04,0-.09.02-.13.04-1.14.5-2.18,1.08-3.1,1.75-.07.05-.17.04-.22-.03-.01-.02-.02-.04-.03-.07-1.05-6.15-2.09-12.12-3.13-17.92-3.08-17.32-4.37-34.69-5.84-52.19-.08-.94-.27-1.85-.58-2.73-.04-.11-.14-.19-.25-.2Z"/>
</svg>